<?xml version="1.0" ?><svg viewBox="0 0 64 64" xmlns="http://www.w3.org/2000/svg"><defs><style>.cls-1{fill:#414042;}.cls-2{fill:#231f20;}.cls-3{fill:#fff200;}.cls-4{fill:#ffbe00;}</style></defs><title/><g id="wallet-money"><path class="cls-1" d="M55.9,18.8S47,13.65,32,13.65s-24,5-24,5L7.79,19l.29-.14c-4.27,10-4.23,24-4.08,28.05V47a9.58,9.58,0,0,0,7.14,9.22l.63.17A67.76,67.76,0,0,0,32,59a67.81,67.81,0,0,0,20.23-2.61l.63-.17A9.57,9.57,0,0,0,60,47v-.11C60.15,42.84,60.2,28.79,55.9,18.8Z"/><path class="cls-2" d="M60,46.92V47a9.57,9.57,0,0,1-7.14,9.19l-.63.17A67.81,67.81,0,0,1,32,59V13.65c15,0,23.9,5.15,23.9,5.15C60.2,28.79,60.15,42.84,60,46.92Z"/><path class="cls-3" d="M59,17.29c-.34-.21-6.84-4-17.67-5.61A5.92,5.92,0,0,0,42,9,6,6,0,0,0,32,4.54a6,6,0,0,0-9.34,7.19A58.44,58.44,0,0,0,5,17.24,2,2,0,0,0,6,21a2.07,2.07,0,0,0,1-.24s.3-.16.83-.41L8,20s9-5,24-5,23.9,5.15,23.9,5.15c.67.33,1,.55,1.07.57A2,2,0,0,0,58,21a2,2,0,0,0,1-3.71ZM28,11a2,2,0,1,1,2-2A2,2,0,0,1,28,11Zm8,0a2,2,0,1,1,2-2A2,2,0,0,1,36,11Z"/><path class="cls-3" d="M33,33H31a2,2,0,0,1,0-4h5a2,2,0,0,0,0-4H35V24a2,2,0,0,0-4,0v1a6,6,0,0,0,0,12h2a2,2,0,0,1,2,2v1a2,2,0,0,1-2,2H28a2,2,0,0,0,0,4h1v1a2,2,0,0,0,4,0V46a6,6,0,0,0,6-6V39A6,6,0,0,0,33,33Z"/><path class="cls-4" d="M59,17.29c-.34-.21-6.84-4-17.67-5.61A5.92,5.92,0,0,0,42,9,6,6,0,0,0,32,4.54V15c15,0,23.9,5.15,23.9,5.15.67.33,1,.55,1.07.57A2,2,0,0,0,58,21a2,2,0,0,0,1-3.71ZM36,11a2,2,0,1,1,2-2A2,2,0,0,1,36,11Z"/><path class="cls-4" d="M38,27a2,2,0,0,0-2-2H35V24a2,2,0,0,0-3-1.73V29h4A2,2,0,0,0,38,27Z"/><path class="cls-4" d="M33,33H32v4h1a2,2,0,0,1,2,2v1a2,2,0,0,1-2,2H32v6.73A2,2,0,0,0,33,47V46a6,6,0,0,0,6-6V39A6,6,0,0,0,33,33Z"/></g></svg>